<svg xmlns="http://www.w3.org/2000/svg" width="256" height="256" viewBox="0 0 256 256" fill="none">
  <defs>
    <linearGradient id="g" x1="40" y1="24" x2="220" y2="232" gradientUnits="userSpaceOnUse">
      <stop stop-color="#92400e"/>
      <stop offset="1" stop-color="#0f172a" stop-opacity="0.85"/>
    </linearGradient>
  </defs>
  <rect width="256" height="256" rx="56" fill="#f8fafc"/>
  <rect x="24" y="24" width="208" height="208" rx="48" fill="url(#g)"/>
  <g transform="translate(64,58) scale(5.3)" fill="none" stroke="white" stroke-width="1.8" stroke-linecap="round" stroke-linejoin="round">
    <path d="M8 10a2 2 0 110-4 2 2 0 010 4zm8 0a2 2 0 110-4 2 2 0 010 4zM6 14a2 2 0 110-4 2 2 0 010 4zm12 0a2 2 0 110-4 2 2 0 010 4zM12 20c-3 0-5-2-5-4 0-2 2-3 5-3s5 1 5 3c0 2-2 4-5 4z"/>
  </g>
</svg>